<svg width="160" height="104" viewBox="0 0 160 104" fill="none" xmlns="http://www.w3.org/2000/svg">
<g clip-path="url(#clip0_2_70)">
<path fill-rule="evenodd" clip-rule="evenodd" d="M161.952 88.5318C129.845 82.7756 97.196 85.9595 65.0087 84.923C43.7248 84.2296 22.4395 82.5594 1.17106 82.0002C0.533394 81.9853 0.00896029 82.9695 0.000103908 84.2072C-0.00836745 85.4449 0.502216 86.459 1.13949 86.4739C22.4057 87.0331 43.6886 88.7034 64.9702 89.3968C97.0997 90.4332 129.687 87.2419 161.736 92.9906C162.371 93.1025 162.934 92.2003 162.995 90.9701C163.053 89.7398 162.583 88.6511 161.952 88.5318Z" fill="#118DA8"/>
</g>
<path d="M5.175 70V32.8H10.875L11.25 39.475C12.45 37.125 14.175 35.275 16.425 33.925C18.675 32.575 21.225 31.9 24.075 31.9C28.475 31.9 31.975 33.25 34.575 35.95C37.225 38.6 38.55 42.7 38.55 48.25V70H32.25V48.925C32.25 41.175 29.05 37.3 22.65 37.3C19.45 37.3 16.775 38.475 14.625 40.825C12.525 43.125 11.475 46.425 11.475 50.725V70H5.175ZM68.0199 70.9C64.4699 70.9 61.3199 70.1 58.5699 68.5C55.8199 66.85 53.6449 64.575 52.0449 61.675C50.4949 58.775 49.7199 55.35 49.7199 51.4C49.7199 47.5 50.4949 44.1 52.0449 41.2C53.5949 38.25 55.7449 35.975 58.4949 34.375C61.2949 32.725 64.5199 31.9 68.1699 31.9C71.7699 31.9 74.8699 32.725 77.4699 34.375C80.1199 35.975 82.1449 38.1 83.5449 40.75C84.9449 43.4 85.6449 46.25 85.6449 49.3C85.6449 49.85 85.6199 50.4 85.5699 50.95C85.5699 51.5 85.5699 52.125 85.5699 52.825H55.9449C56.0949 55.675 56.7449 58.05 57.8949 59.95C59.0949 61.8 60.5699 63.2 62.3199 64.15C64.1199 65.1 66.0199 65.575 68.0199 65.575C70.6199 65.575 72.7949 64.975 74.5449 63.775C76.2949 62.575 77.5699 60.95 78.3699 58.9H84.5949C83.5949 62.35 81.6699 65.225 78.8199 67.525C76.0199 69.775 72.4199 70.9 68.0199 70.9ZM68.0199 37.225C65.0199 37.225 62.3449 38.15 59.9949 40C57.6949 41.8 56.3699 44.45 56.0199 47.95H79.4199C79.2699 44.6 78.1199 41.975 75.9699 40.075C73.8199 38.175 71.1699 37.225 68.0199 37.225ZM91.6873 70L104.587 51.4L91.6873 32.8H98.5123L108.937 48.175L119.437 32.8H126.187L113.287 51.4L126.187 70H119.437L108.937 54.625L98.5123 70H91.6873ZM150.691 70C147.291 70 144.616 69.175 142.666 67.525C140.716 65.875 139.741 62.9 139.741 58.6V38.125H133.291V32.8H139.741L140.566 23.875H146.041V32.8H156.991V38.125H146.041V58.6C146.041 60.95 146.516 62.55 147.466 63.4C148.416 64.2 150.091 64.6 152.491 64.6H156.391V70H150.691Z" fill="white"/>
<defs>
<clipPath id="clip0_2_70">
<rect width="160" height="104" fill="white"/>
</clipPath>
</defs>
</svg>
